<svg xmlns="http://www.w3.org/2000/svg" viewBox="0 0 24 24" width="24" height="24" preserveAspectRatio="xMidYMid meet" style="width: 100%; height: 100%; transform: translate3d(0px, 0px, 0px);"><defs><clipPath id="__lottie_element_183"><rect width="24" height="24" x="0" y="0"></rect></clipPath></defs><g clip-path="url(#__lottie_element_183)"><g transform="matrix(1,0,0,1,0,0)" opacity="1" style="display: block;"><g opacity="1" transform="matrix(1,0,0,1,11.75,11.324999809265137)"><path stroke-linecap="round" stroke-linejoin="round" fill-opacity="0" stroke="rgb(0,0,0)" stroke-opacity="1" stroke-width="2" d=" M-2.75,7.675000190734863 C-7.75,9.175000190734863 -7.75,5.175000190734863 -9.75,4.675000190734863"></path></g><g opacity="1" transform="matrix(1,0,0,1,11.75,11.324999809265137)"><path stroke-linecap="round" stroke-linejoin="round" fill-opacity="0" stroke="rgb(0,0,0)" stroke-opacity="1" stroke-width="2" d=" M4.25,10.675000190734863 C4.25,10.675000190734863 4.25,6.804999828338623 4.25,6.804999828338623 C4.326000213623047,5.840000152587891 3.9830000400543213,4.889999866485596 3.309999942779541,4.195000171661377 C6.449999809265137,3.8450000286102295 9.75,2.6549999713897705 9.75,-2.805000066757202 C9.75,-4.201000213623047 9.213000297546387,-5.544000148773193 8.25,-6.554999828338623 C8.706000328063965,-7.7769999504089355 8.673999786376953,-9.126999855041504 8.15999984741211,-10.324999809265137 C8.15999984741211,-10.324999809265137 6.980000019073486,-10.675000190734863 4.25,-8.845000267028809 C1.9579999446868896,-9.465999603271484 -0.4580000042915344,-9.465999603271484 -2.75,-8.845000267028809 C-5.480000019073486,-10.675000190734863 -6.659999847412109,-10.324999809265137 -6.659999847412109,-10.324999809265137 C-7.173999786376953,-9.126999855041504 -7.205999851226807,-7.7769999504089355 -6.75,-6.554999828338623 C-7.71999979019165,-5.535999774932861 -8.256999969482422,-4.181000232696533 -8.25,-2.7750000953674316 C-8.25,2.6449999809265137 -4.949999809265137,3.8350000381469727 -1.809999942779541,4.224999904632568 C-2.4760000705718994,4.9120001792907715 -2.816999912261963,5.85099983215332 -2.75,6.804999828338623 C-2.75,6.804999828338623 -2.75,10.675000190734863 -2.75,10.675000190734863"></path></g></g></g></svg>